  0
SECTION
  2
BLOCKS
  0
ENDSEC
  0
SECTION
  2
ENTITIES
  0
LINE
  8
0
 10
102
 20
-37.5
 11
50.9123
 21
-37.5
  0
LINE
  8
0
 10
50.9123
 20
-37.5
 11
50.9123
 21
-36.3275
  0
LINE
  8
0
 10
50.9123
 20
-36.3275
 11
50.2169
 21
-33.0557
  0
LINE
  8
0
 10
50.2169
 20
-33.0557
 11
48.8564
 21
-30
  0
LINE
  8
0
 10
48.8564
 20
-30
 11
46.8903
 21
-27.2939
  0
LINE
  8
0
 10
46.8903
 20
-27.2939
 11
44.4046
 21
-25.0557
  0
LINE
  8
0
 10
44.4046
 20
-25.0557
 11
41.5078
 21
-23.3833
  0
LINE
  8
0
 10
41.5078
 20
-23.3833
 11
38.3266
 21
-22.3496
  0
LINE
  8
0
 10
38.3266
 20
-22.3496
 11
35
 21
-22
  0
LINE
  8
0
 10
35
 20
-22
 11
31.6734
 21
-22.3496
  0
LINE
  8
0
 10
31.6734
 20
-22.3496
 11
28.4922
 21
-23.3833
  0
LINE
  8
0
 10
28.4922
 20
-23.3833
 11
25.5954
 21
-25.0557
  0
LINE
  8
0
 10
25.5954
 20
-25.0557
 11
23.1097
 21
-27.2939
  0
LINE
  8
0
 10
23.1097
 20
-27.2939
 11
21.1436
 21
-30
  0
LINE
  8
0
 10
21.1436
 20
-30
 11
19.7831
 21
-33.0557
  0
LINE
  8
0
 10
19.7831
 20
-33.0557
 11
19.0876
 21
-36.3275
  0
LINE
  8
0
 10
19.0876
 20
-36.3275
 11
19.0876
 21
-37.5
  0
LINE
  8
0
 10
19.0876
 20
-37.5
 11
11.9121
 21
-37.5
  0
LINE
  8
0
 10
11.9121
 20
-37.5
 11
11.4231
 21
-35.9306
  0
LINE
  8
0
 10
11.4231
 20
-35.9306
 11
10.0694
 21
-34.5769
  0
LINE
  8
0
 10
10.0694
 20
-34.5769
 11
8.2415
 21
-34.0073
  0
LINE
  8
0
 10
8.2415
 20
-34.0073
 11
6.35834
 21
-34.3524
  0
LINE
  8
0
 10
6.35834
 20
-34.3524
 11
5.23358
 21
-35.2336
  0
LINE
  8
0
 10
5.23358
 20
-35.2336
 11
6.08578
 21
-36.0858
  0
LINE
  8
0
 10
6.08578
 20
-36.0858
 11
6.23222
 21
-35.7322
  0
LINE
  8
0
 10
6.23222
 20
-35.7322
 11
8
 21
-35
  0
LINE
  8
0
 10
8
 20
-35
 11
9.76776
 21
-35.7322
  0
LINE
  8
0
 10
9.76776
 20
-35.7322
 11
10.5
 21
-37.5
  0
LINE
  8
0
 10
10.5
 20
-37.5
 11
0
 21
-37.5
  0
LINE
  8
0
 10
0
 20
-37.5
 11
0
 21
-42.5
  0
LINE
  8
0
 10
0
 20
-42.5
 11
102
 21
-42.5
  0
LINE
  8
0
 10
102
 20
-42.5
 11
102
 21
-37.5
  0
LINE
  8
0
 10
33.2366
 20
-31.927
 11
32.1468
 21
-30.427
  0
LINE
  8
0
 10
32.1468
 20
-30.427
 11
32.1468
 21
-28.5729
  0
LINE
  8
0
 10
32.1468
 20
-28.5729
 11
33.2366
 21
-27.0729
  0
LINE
  8
0
 10
33.2366
 20
-27.0729
 11
35
 21
-26.5
  0
LINE
  8
0
 10
35
 20
-26.5
 11
36.7634
 21
-27.0729
  0
LINE
  8
0
 10
36.7634
 20
-27.0729
 11
37.8532
 21
-28.5729
  0
LINE
  8
0
 10
37.8532
 20
-28.5729
 11
37.8532
 21
-30.427
  0
LINE
  8
0
 10
37.8532
 20
-30.427
 11
36.7634
 21
-31.927
  0
LINE
  8
0
 10
36.7634
 20
-31.927
 11
35
 21
-32.5
  0
LINE
  8
0
 10
35
 20
-32.5
 11
33.2366
 21
-31.927
  0
ENDSEC
  0
SECTION
  2
OBJECTS
  0
DICTIONARY
  0
ENDSEC
  0
EOF
