  0
SECTION
  2
BLOCKS
  0
ENDSEC
  0
SECTION
  2
ENTITIES
  0
LINE
  8
0
 10
17.5355
 20
-41.4645
 11
15.9134
 21
-40.3806
  0
LINE
  8
0
 10
15.9134
 20
-40.3806
 11
14
 21
-40
  0
LINE
  8
0
 10
14
 20
-40
 11
12.0866
 21
-40.3806
  0
LINE
  8
0
 10
12.0866
 20
-40.3806
 11
10.4645
 21
-41.4645
  0
LINE
  8
0
 10
10.4645
 20
-41.4645
 11
9.3806
 21
-43.0866
  0
LINE
  8
0
 10
9.3806
 20
-43.0866
 11
9
 21
-45
  0
LINE
  8
0
 10
9
 20
-45
 11
8
 21
-45
  0
LINE
  8
0
 10
8
 20
-45
 11
8
 21
-50
  0
LINE
  8
0
 10
8
 20
-50
 11
100
 21
-50
  0
LINE
  8
0
 10
100
 20
-50
 11
100
 21
-45
  0
LINE
  8
0
 10
100
 20
-45
 11
51
 21
-45
  0
LINE
  8
0
 10
51
 20
-45
 11
51
 21
-37
  0
LINE
  8
0
 10
51
 20
-37
 11
50.9123
 21
-37
  0
LINE
  8
0
 10
50.9123
 20
-37
 11
50.9123
 21
-36.3275
  0
LINE
  8
0
 10
50.9123
 20
-36.3275
 11
50.2169
 21
-33.0557
  0
LINE
  8
0
 10
50.2169
 20
-33.0557
 11
48.8564
 21
-30
  0
LINE
  8
0
 10
48.8564
 20
-30
 11
46.8903
 21
-27.2939
  0
LINE
  8
0
 10
46.8903
 20
-27.2939
 11
44.4046
 21
-25.0557
  0
LINE
  8
0
 10
44.4046
 20
-25.0557
 11
41.5078
 21
-23.3833
  0
LINE
  8
0
 10
41.5078
 20
-23.3833
 11
38.3266
 21
-22.3496
  0
LINE
  8
0
 10
38.3266
 20
-22.3496
 11
35
 21
-22
  0
LINE
  8
0
 10
35
 20
-22
 11
31.6734
 21
-22.3496
  0
LINE
  8
0
 10
31.6734
 20
-22.3496
 11
28.4922
 21
-23.3833
  0
LINE
  8
0
 10
28.4922
 20
-23.3833
 11
25.5954
 21
-25.0557
  0
LINE
  8
0
 10
25.5954
 20
-25.0557
 11
23.1097
 21
-27.2939
  0
LINE
  8
0
 10
23.1097
 20
-27.2939
 11
21.1436
 21
-30
  0
LINE
  8
0
 10
21.1436
 20
-30
 11
19.7831
 21
-33.0557
  0
LINE
  8
0
 10
19.7831
 20
-33.0557
 11
19.0876
 21
-36.3275
  0
LINE
  8
0
 10
19.0876
 20
-36.3275
 11
19.0876
 21
-37
  0
LINE
  8
0
 10
19.0876
 20
-37
 11
19
 21
-37
  0
LINE
  8
0
 10
19
 20
-37
 11
19
 21
-45
  0
LINE
  8
0
 10
19
 20
-45
 11
18.6194
 21
-43.0866
  0
LINE
  8
0
 10
18.6194
 20
-43.0866
 11
17.5355
 21
-41.4645
  0
LINE
  8
0
 10
12.0501
 20
-44.445
 11
12.4363
 21
-42.753
  0
LINE
  8
0
 10
12.4363
 20
-42.753
 11
14
 21
-42
  0
LINE
  8
0
 10
14
 20
-42
 11
15.5637
 21
-42.753
  0
LINE
  8
0
 10
15.5637
 20
-42.753
 11
15.9498
 21
-44.445
  0
LINE
  8
0
 10
15.9498
 20
-44.445
 11
15.5073
 21
-45
  0
LINE
  8
0
 10
15.5073
 20
-45
 11
12.4927
 21
-45
  0
LINE
  8
0
 10
12.4927
 20
-45
 11
12.0501
 21
-44.445
  0
ENDSEC
  0
SECTION
  2
OBJECTS
  0
DICTIONARY
  0
ENDSEC
  0
EOF
