  0
SECTION
  2
BLOCKS
  0
ENDSEC
  0
SECTION
  2
ENTITIES
  0
LINE
  8
0
 10
120
 20
100
 11
0
 21
100
  0
LINE
  8
0
 10
0
 20
100
 11
0
 21
0
  0
LINE
  8
0
 10
0
 20
0
 11
120
 21
0
  0
LINE
  8
0
 10
120
 20
0
 11
120
 21
100
  0
LINE
  8
0
 10
8.409
 20
88.409
 11
7.75
 21
90
  0
LINE
  8
0
 10
7.75
 20
90
 11
8.409
 21
91.591
  0
LINE
  8
0
 10
8.409
 20
91.591
 11
10
 21
92.25
  0
LINE
  8
0
 10
10
 20
92.25
 11
11.591
 21
91.591
  0
LINE
  8
0
 10
11.591
 20
91.591
 11
12.25
 21
90
  0
LINE
  8
0
 10
12.25
 20
90
 11
11.591
 21
88.409
  0
LINE
  8
0
 10
11.591
 20
88.409
 11
10
 21
87.75
  0
LINE
  8
0
 10
10
 20
87.75
 11
8.409
 21
88.409
  0
LINE
  8
0
 10
108.409
 20
88.409
 11
107.75
 21
90
  0
LINE
  8
0
 10
107.75
 20
90
 11
108.409
 21
91.591
  0
LINE
  8
0
 10
108.409
 20
91.591
 11
110
 21
92.25
  0
LINE
  8
0
 10
110
 20
92.25
 11
111.591
 21
91.591
  0
LINE
  8
0
 10
111.591
 20
91.591
 11
112.25
 21
90
  0
LINE
  8
0
 10
112.25
 20
90
 11
111.591
 21
88.409
  0
LINE
  8
0
 10
111.591
 20
88.409
 11
110
 21
87.75
  0
LINE
  8
0
 10
110
 20
87.75
 11
108.409
 21
88.409
  0
LINE
  8
0
 10
20
 20
30
 11
20
 21
70
  0
LINE
  8
0
 10
20
 20
70
 11
100
 21
70
  0
LINE
  8
0
 10
100
 20
70
 11
100
 21
30
  0
LINE
  8
0
 10
100
 20
30
 11
20
 21
30
  0
LINE
  8
0
 10
107.872
 20
47.5438
 11
106.882
 21
49.0844
  0
LINE
  8
0
 10
106.882
 20
49.0844
 11
106.882
 21
50.9156
  0
LINE
  8
0
 10
106.882
 20
50.9156
 11
107.872
 21
52.4562
  0
LINE
  8
0
 10
107.872
 20
52.4562
 11
109.537
 21
53.2169
  0
LINE
  8
0
 10
109.537
 20
53.2169
 11
111.35
 21
52.9563
  0
LINE
  8
0
 10
111.35
 20
52.9563
 11
112.734
 21
51.7571
  0
LINE
  8
0
 10
112.734
 20
51.7571
 11
113.25
 21
50
  0
LINE
  8
0
 10
113.25
 20
50
 11
112.734
 21
48.2429
  0
LINE
  8
0
 10
112.734
 20
48.2429
 11
111.35
 21
47.0437
  0
LINE
  8
0
 10
111.35
 20
47.0437
 11
109.537
 21
46.7831
  0
LINE
  8
0
 10
109.537
 20
46.7831
 11
107.872
 21
47.5438
  0
LINE
  8
0
 10
7.87169
 20
47.5438
 11
6.88164
 21
49.0844
  0
LINE
  8
0
 10
6.88164
 20
49.0844
 11
6.88164
 21
50.9156
  0
LINE
  8
0
 10
6.88164
 20
50.9156
 11
7.87169
 21
52.4562
  0
LINE
  8
0
 10
7.87169
 20
52.4562
 11
9.53748
 21
53.2169
  0
LINE
  8
0
 10
9.53748
 20
53.2169
 11
11.3501
 21
52.9563
  0
LINE
  8
0
 10
11.3501
 20
52.9563
 11
12.7341
 21
51.7571
  0
LINE
  8
0
 10
12.7341
 20
51.7571
 11
13.25
 21
50
  0
LINE
  8
0
 10
13.25
 20
50
 11
12.7341
 21
48.2429
  0
LINE
  8
0
 10
12.7341
 20
48.2429
 11
11.3501
 21
47.0437
  0
LINE
  8
0
 10
11.3501
 20
47.0437
 11
9.53748
 21
46.7831
  0
LINE
  8
0
 10
9.53748
 20
46.7831
 11
7.87169
 21
47.5438
  0
LINE
  8
0
 10
8.409
 20
8.409
 11
7.75
 21
10
  0
LINE
  8
0
 10
7.75
 20
10
 11
8.409
 21
11.591
  0
LINE
  8
0
 10
8.409
 20
11.591
 11
10
 21
12.25
  0
LINE
  8
0
 10
10
 20
12.25
 11
11.591
 21
11.591
  0
LINE
  8
0
 10
11.591
 20
11.591
 11
12.25
 21
10
  0
LINE
  8
0
 10
12.25
 20
10
 11
11.591
 21
8.409
  0
LINE
  8
0
 10
11.591
 20
8.409
 11
10
 21
7.75
  0
LINE
  8
0
 10
10
 20
7.75
 11
8.409
 21
8.409
  0
LINE
  8
0
 10
108.409
 20
8.409
 11
107.75
 21
10
  0
LINE
  8
0
 10
107.75
 20
10
 11
108.409
 21
11.591
  0
LINE
  8
0
 10
108.409
 20
11.591
 11
110
 21
12.25
  0
LINE
  8
0
 10
110
 20
12.25
 11
111.591
 21
11.591
  0
LINE
  8
0
 10
111.591
 20
11.591
 11
112.25
 21
10
  0
LINE
  8
0
 10
112.25
 20
10
 11
111.591
 21
8.409
  0
LINE
  8
0
 10
111.591
 20
8.409
 11
110
 21
7.75
  0
LINE
  8
0
 10
110
 20
7.75
 11
108.409
 21
8.409
  0
ENDSEC
  0
SECTION
  2
OBJECTS
  0
DICTIONARY
  0
ENDSEC
  0
EOF
