  0
SECTION
  2
BLOCKS
  0
ENDSEC
  0
SECTION
  2
ENTITIES
  0
LINE
  8
0
 10
34.5
 20
104.053
 11
35
 21
104
  0
LINE
  8
0
 10
35
 20
104
 11
38.3266
 21
104.35
  0
LINE
  8
0
 10
38.3266
 20
104.35
 11
41.5078
 21
105.383
  0
LINE
  8
0
 10
41.5078
 20
105.383
 11
44.4046
 21
107.056
  0
LINE
  8
0
 10
44.4046
 20
107.056
 11
46.8903
 21
109.294
  0
LINE
  8
0
 10
46.8903
 20
109.294
 11
48.8564
 21
112
  0
LINE
  8
0
 10
48.8564
 20
112
 11
50.2169
 21
115.056
  0
LINE
  8
0
 10
50.2169
 20
115.056
 11
50.9123
 21
118.328
  0
LINE
  8
0
 10
50.9123
 20
118.328
 11
50.9123
 21
120
  0
LINE
  8
0
 10
50.9123
 20
120
 11
102
 21
120
  0
LINE
  8
0
 10
102
 20
120
 11
102
 21
125
  0
LINE
  8
0
 10
102
 20
125
 11
0
 21
125
  0
LINE
  8
0
 10
0
 20
125
 11
0
 21
120
  0
LINE
  8
0
 10
0
 20
120
 11
10.2929
 21
120
  0
LINE
  8
0
 10
10.2929
 20
120
 11
9.76776
 21
118.732
  0
LINE
  8
0
 10
9.76776
 20
118.732
 11
8
 21
118
  0
LINE
  8
0
 10
8
 20
118
 11
6.23222
 21
118.732
  0
LINE
  8
0
 10
6.23222
 20
118.732
 11
6.08578
 21
119.086
  0
LINE
  8
0
 10
6.08578
 20
119.086
 11
5.23358
 21
118.234
  0
LINE
  8
0
 10
5.23358
 20
118.234
 11
6.35834
 21
117.352
  0
LINE
  8
0
 10
6.35834
 20
117.352
 11
8.2415
 21
117.007
  0
LINE
  8
0
 10
8.2415
 20
117.007
 11
10.0694
 21
117.577
  0
LINE
  8
0
 10
10.0694
 20
117.577
 11
11.4231
 21
118.931
  0
LINE
  8
0
 10
11.4231
 20
118.931
 11
11.7563
 21
120
  0
LINE
  8
0
 10
11.7563
 20
120
 11
19.0876
 21
120
  0
LINE
  8
0
 10
19.0876
 20
120
 11
19.0876
 21
118.328
  0
LINE
  8
0
 10
19.0876
 20
118.328
 11
19.5824
 21
116
  0
LINE
  8
0
 10
19.5824
 20
116
 11
19.5
 21
116
  0
LINE
  8
0
 10
19.5
 20
116
 11
19.5
 21
104
  0
LINE
  8
0
 10
19.5
 20
104
 11
34.5
 21
104
  0
LINE
  8
0
 10
34.5
 20
104
 11
34.5
 21
104.053
  0
LINE
  8
0
 10
33.2366
 20
109.573
 11
32.1468
 21
111.073
  0
LINE
  8
0
 10
32.1468
 20
111.073
 11
32.1468
 21
112.927
  0
LINE
  8
0
 10
32.1468
 20
112.927
 11
33.2366
 21
114.427
  0
LINE
  8
0
 10
33.2366
 20
114.427
 11
35
 21
115
  0
LINE
  8
0
 10
35
 20
115
 11
36.7634
 21
114.427
  0
LINE
  8
0
 10
36.7634
 20
114.427
 11
37.8532
 21
112.927
  0
LINE
  8
0
 10
37.8532
 20
112.927
 11
37.8532
 21
111.073
  0
LINE
  8
0
 10
37.8532
 20
111.073
 11
36.7634
 21
109.573
  0
LINE
  8
0
 10
36.7634
 20
109.573
 11
35
 21
109
  0
LINE
  8
0
 10
35
 20
109
 11
33.2366
 21
109.573
  0
ENDSEC
  0
SECTION
  2
OBJECTS
  0
DICTIONARY
  0
ENDSEC
  0
EOF
