<?xml version="1.0" standalone="no"?>
<!DOCTYPE svg PUBLIC "-//W3C//DTD SVG 1.1//EN" "http://www.w3.org/Graphics/SVG/1.1/DTD/svg11.dtd">
<svg width="210mm" height="23mm" viewBox="0 0 210 23" xmlns="http://www.w3.org/2000/svg" version="1.1">
<title>OpenSCAD Model</title>
<path d="
M 46.4645,8.53552 L 48.0866,9.61938 L 50,10 L 51.9134,9.61938 L 53.5355,8.53552 L 54.6194,6.91341
 L 55,5 L 90,5 L 90,8.5 L 90.0822,8.5 L 90.0822,9.56792 L 90.7341,12.6353
 L 92.0096,15.5 L 93.8528,18.037 L 96.1832,20.1353 L 98.8989,21.7032 L 101.881,22.6722 L 105,23
 L 108.119,22.6722 L 111.101,21.7032 L 113.817,20.1353 L 116.147,18.037 L 117.99,15.5 L 119.266,12.6353
 L 119.918,9.56792 L 119.918,8.5 L 120,8.5 L 120,5 L 155,5 L 155.381,6.91341
 L 156.464,8.53552 L 158.087,9.61938 L 160,10 L 161.913,9.61938 L 163.536,8.53552 L 164.619,6.91341
 L 165,5 L 210,5 L 210,-0 L 0,-0 L 0,5 L 45,5
 L 45.3806,6.91341 z
M 158.409,7.59099 L 157.75,6 L 158.164,5 L 161.836,5 L 162.25,6 L 161.591,7.59099
 L 160,8.25 z
M 103.409,16.591 L 102.75,15 L 103.409,13.409 L 105,12.75 L 106.591,13.409 L 107.25,15
 L 106.591,16.591 L 105,17.25 z
M 52.25,6 L 51.591,7.59099 L 50,8.25 L 48.409,7.59099 L 47.75,6 L 48.1642,5
 L 51.8358,5 z
" stroke="black" fill="lightgray" stroke-width="0.5"/>
</svg>
